<svg class="svg-icon" style="width: 1em; height: 1em;vertical-align: middle;fill: currentColor;overflow: hidden;"
     viewBox="0 0 1024 1024" version="1.1" xmlns="http://www.w3.org/2000/svg">
    <path d="M122.7 229.4h781.1c20.7 0 37.5-16.8 37.5-37.5s-16.8-37.5-37.5-37.5H122.7c-20.7 0-37.5 16.8-37.5 37.5s16.8 37.5 37.5 37.5zM903.8 473.1H122.7c-20.7 0-37.5 16.8-37.5 37.5s16.8 37.5 37.5 37.5h781.1c20.7 0 37.5-16.8 37.5-37.5-0.1-20.7-16.9-37.5-37.5-37.5zM903.8 791H122.7c-20.7 0-37.5 16.8-37.5 37.5S102 866 122.7 866h781.1c20.7 0 37.5-16.8 37.5-37.5S924.4 791 903.8 791z"/>
</svg>