<svg class="svg-icon" style="width: 45px;height: 45px;vertical-align: middle;fill: currentColor;overflow: hidden;"
     viewBox="0 0 1024 1024" version="1.1" xmlns="http://www.w3.org/2000/svg">
    <path d="M512 828.757333c-37.632 0-192-96.853333-192-215.68a117.845333 117.845333 0 0 1 109.952-119.168 109.909333 109.909333 0 0 1 82.048 36.693334 109.738667 109.738667 0 0 1 81.877333-36.693334h0.042667a117.888 117.888 0 0 1 110.08 119.168c0 118.784-154.368 215.68-192 215.68z m-82.048-292.181333A76.245333 76.245333 0 0 0 362.666667 613.12c0 91.733333 130.389333 169.685333 150.613333 173.098667 17.664-3.413333 148.053333-81.365333 148.053333-173.098667a75.52 75.52 0 0 0-67.413333-76.501333 67.242667 67.242667 0 0 0-62.208 41.813333 22.186667 22.186667 0 0 1-39.424 0 67.285333 67.285333 0 0 0-62.336-41.813333z"/>
    <path d="M753.237333 938.666667H270.762667a63.829333 63.829333 0 0 1-63.146667-53.376L135.808 372.138667A64 64 0 0 1 199.082667 298.666667h625.834666a64 64 0 0 1 63.274667 73.770666l-71.765333 512.256A64 64 0 0 1 753.237333 938.666667zM199.082667 341.333333a21.333333 21.333333 0 0 0-21.12 24.576l71.850666 512.853334a21.162667 21.162667 0 0 0 20.949334 17.237333h482.474666a21.290667 21.290667 0 0 0 21.034667-17.792l71.68-512a21.162667 21.162667 0 0 0-4.821333-17.408 20.906667 20.906667 0 0 0-16.213334-7.466667z"/>
    <path d="M704 405.333333A21.333333 21.333333 0 0 1 682.666667 384V296.704a170.666667 170.666667 0 0 0-341.333334 0V384a21.333333 21.333333 0 0 1-42.666666 0V296.704a213.333333 213.333333 0 0 1 426.666666 0V384a21.333333 21.333333 0 0 1-21.333333 21.333333z"/>
</svg>